<svg viewBox="0 0 26 28" xmlns="http://www.w3.org/2000/svg">
    <path d="M23.5805 8.85196C22.6569 8.85196 21.9092 9.57953 21.9092 10.4768V17.4324C21.9092 18.3297 22.6569 19.0573 23.5805 19.0573C24.5023 19.0573 25.25 18.3297 25.25 17.4324V10.4768C25.25 9.57975 24.5023 8.85196 23.5805 8.85196ZM2.42125 8.85196C1.49769 8.85196 0.75 9.57953 0.75 10.4768V17.4324C0.75 18.3297 1.49769 19.0573 2.42125 19.0573C3.34306 19.0573 4.09075 18.3297 4.09075 17.4324V10.4768C4.09075 9.57975 3.34306 8.85196 2.42125 8.85196ZM5.32559 8.85196H5.2055V20.7745C5.2055 21.721 5.99541 22.4917 6.96972 22.4917H8.24175C8.19778 22.635 8.17416 22.7848 8.17416 22.9427V26.3754C8.17416 27.2727 8.92359 28.0002 9.84541 28.0002C10.7672 28.0002 11.5167 27.2727 11.5167 26.3754V22.9425C11.5167 22.7846 11.4913 22.6347 11.4491 22.4915H14.5514C14.5092 22.6347 14.4853 22.7846 14.4853 22.9425V26.3752C14.4853 27.2725 15.233 28 16.1548 28C17.0784 28 17.8278 27.2725 17.8278 26.3752V22.9425C17.8278 22.7846 17.8024 22.6347 17.7585 22.4915H19.0322C20.0066 22.4915 20.7947 21.721 20.7947 20.7743V8.85196H5.32559ZM16.8347 2.34415L17.146 1.88653L17.4573 1.43546L18.1507 0.42134C18.2369 0.296215 18.2014 0.128215 18.0728 0.0459647C17.9459 -0.0380353 17.7718 -0.00347277 17.6889 0.121652L16.6299 1.66428L16.3121 2.12846C15.3056 1.74828 14.1841 1.53587 13 1.53587C11.8177 1.53587 10.6944 1.74828 9.68791 2.12846L9.37159 1.66428L9.05856 1.20818L8.31438 0.121652C8.22819 -0.00347277 8.05559 -0.0362853 7.92697 0.0459647C7.80009 0.128215 7.76466 0.296215 7.84909 0.42134L8.54253 1.43546L8.85381 1.88653L9.16684 2.34415C6.80369 3.41581 5.20528 5.44581 5.20528 7.76871H20.7943C20.7945 5.44581 19.1961 3.41603 16.8347 2.34415ZM9.65925 5.60046C9.19747 5.60046 8.82363 5.23668 8.82363 4.78715C8.82363 4.33762 9.19747 3.97559 9.65925 3.97559C10.121 3.97559 10.4949 4.33784 10.4949 4.78715C10.4949 5.23668 10.121 5.60046 9.65925 5.60046ZM16.3408 5.60046C15.879 5.60046 15.5051 5.23668 15.5051 4.78715C15.5051 4.33762 15.879 3.97559 16.3408 3.97559C16.8025 3.97559 17.1764 4.33784 17.1764 4.78715C17.1764 5.23668 16.8025 5.60046 16.3408 5.60046Z"/>
</svg>
